# xmcd
#
# Track frame offsets:
#	150
#	18949
#	42581
#	58402
#	75291
#	93206
#	114331
#	141208
#	164678
#	185393
#	200950
#	215658
#	232225
#	251155
#	269016
#	287833
#	307813
#
# Disc length: 4390 seconds
#
# Revision: 1
# Processed by: cddbd v1.5PL0 Copyright (c) Steve Scherf et al.
# Submitted via: audiograbber 1.82.02
#
DISCID=05112411
DTITLE=Paul McCartney - All The Best
DYEAR=1900
DGENRE=
TTITLE0=Jet
TTITLE1=Band on the Run
TTITLE2=Coming Up
TTITLE3=Ebony And Ivory
TTITLE4=Listen To What The Man Said
TTITLE5=No More Lonely Nights
TTITLE6=Silly Love Songs
TTITLE7=Let 'Em In
TTITLE8=C Moon
TTITLE9=Pipes of Peace
TTITLE10=Live and Let Die
TTITLE11=Another Day
TTITLE12=Once Upon A Long Ago
TTITLE13=Say Say Say
TTITLE14=My Love
TTITLE15=We All Stand Together
TTITLE16=Mull Of Kintyre
EXTD=
EXTT0=
EXTT1=
EXTT2=
EXTT3=
EXTT4=
EXTT5=
EXTT6=
EXTT7=
EXTT8=
EXTT9=
EXTT10=
EXTT11=
EXTT12=
EXTT13=
EXTT14=
EXTT15=
EXTT16=
PLAYORDER=
